<mxfile host="65bd71144e">
    <diagram id="NQbdevP67i4PQxkOO86s" name="Page-1">
        <mxGraphModel dx="594" dy="561" grid="1" gridSize="10" guides="1" tooltips="1" connect="1" arrows="1" fold="1" page="1" pageScale="1" pageWidth="827" pageHeight="1169" math="0" shadow="0">
            <root>
                <mxCell id="0"/>
                <mxCell id="1" parent="0"/>
                <mxCell id="66" style="edgeStyle=none;html=1;exitX=0;exitY=0.5;exitDx=0;exitDy=0;endArrow=none;endFill=0;startSize=3;" edge="1" parent="1" source="69">
                    <mxGeometry relative="1" as="geometry">
                        <mxPoint x="50" y="320" as="targetPoint"/>
                    </mxGeometry>
                </mxCell>
                <mxCell id="67" style="edgeStyle=none;html=1;exitX=1;exitY=0.5;exitDx=0;exitDy=0;entryX=1;entryY=0.885;entryDx=0;entryDy=0;entryPerimeter=0;endArrow=none;endFill=0;startSize=6;" edge="1" parent="1" source="69" target="79">
                    <mxGeometry relative="1" as="geometry"/>
                </mxCell>
                <mxCell id="68" style="edgeStyle=none;html=1;exitX=1;exitY=0.5;exitDx=0;exitDy=0;entryX=0;entryY=0.5;entryDx=0;entryDy=0;entryPerimeter=0;endArrow=none;endFill=0;" edge="1" parent="1" source="69" target="71">
                    <mxGeometry relative="1" as="geometry"/>
                </mxCell>
                <mxCell id="69" value="" style="pointerEvents=1;verticalLabelPosition=bottom;shadow=0;dashed=0;align=center;html=1;verticalAlign=top;shape=mxgraph.electrical.miscellaneous.batteryStack;" vertex="1" parent="1">
                    <mxGeometry x="50" y="160" width="100" height="60" as="geometry"/>
                </mxCell>
                <mxCell id="70" style="edgeStyle=none;html=1;exitX=1;exitY=0.5;exitDx=0;exitDy=0;exitPerimeter=0;endArrow=none;endFill=0;entryX=0.7;entryY=0;entryDx=0;entryDy=0;entryPerimeter=0;" edge="1" parent="1" source="71" target="83">
                    <mxGeometry relative="1" as="geometry">
                        <mxPoint x="370" y="180" as="targetPoint"/>
                    </mxGeometry>
                </mxCell>
                <mxCell id="71" value="" style="pointerEvents=1;verticalLabelPosition=bottom;shadow=0;dashed=0;align=center;html=1;verticalAlign=top;shape=mxgraph.electrical.resistors.resistor_2;" vertex="1" parent="1">
                    <mxGeometry x="230" y="180" width="100" height="20" as="geometry"/>
                </mxCell>
                <mxCell id="72" style="edgeStyle=none;html=1;endArrow=none;endFill=0;" edge="1" parent="1">
                    <mxGeometry relative="1" as="geometry">
                        <mxPoint x="505" y="320" as="targetPoint"/>
                        <mxPoint x="50" y="320" as="sourcePoint"/>
                    </mxGeometry>
                </mxCell>
                <mxCell id="73" value="&lt;font style=&quot;font-size: 18px&quot;&gt;-&lt;/font&gt;" style="text;html=1;resizable=0;autosize=1;align=center;verticalAlign=middle;points=[];fillColor=none;strokeColor=none;rounded=0;fontFamily=Helvetica;fontSize=11;fontColor=default;" vertex="1" parent="1">
                    <mxGeometry x="30" y="160" width="20" height="20" as="geometry"/>
                </mxCell>
                <mxCell id="74" value="&lt;font style=&quot;font-size: 18px&quot;&gt;+&lt;/font&gt;" style="text;html=1;resizable=0;autosize=1;align=center;verticalAlign=middle;points=[];fillColor=none;strokeColor=none;rounded=0;fontFamily=Helvetica;fontSize=11;fontColor=default;" vertex="1" parent="1">
                    <mxGeometry x="140" y="160" width="30" height="20" as="geometry"/>
                </mxCell>
                <mxCell id="75" value="&lt;font style=&quot;font-size: 18px&quot;&gt;5 V&lt;br&gt;&lt;/font&gt;" style="text;html=1;resizable=0;autosize=1;align=center;verticalAlign=middle;points=[];fillColor=none;strokeColor=none;rounded=0;fontFamily=Helvetica;fontSize=11;fontColor=default;" vertex="1" parent="1">
                    <mxGeometry x="80" y="130" width="40" height="20" as="geometry"/>
                </mxCell>
                <mxCell id="76" value="&lt;font style=&quot;font-size: 18px&quot;&gt;220&amp;nbsp;&lt;/font&gt;&lt;span style=&quot;color: rgb(32 , 33 , 36) ; font-family: &amp;#34;arial&amp;#34; , sans-serif ; font-size: 16px ; text-align: left ; background-color: rgb(255 , 255 , 255)&quot;&gt;Ω&lt;/span&gt;" style="text;html=1;resizable=0;autosize=1;align=center;verticalAlign=middle;points=[];fillColor=none;strokeColor=none;rounded=0;fontFamily=Helvetica;fontSize=11;fontColor=default;" vertex="1" parent="1">
                    <mxGeometry x="250" y="160" width="60" height="20" as="geometry"/>
                </mxCell>
                <mxCell id="77" value="&lt;font style=&quot;font-size: 18px&quot;&gt;LED 1&lt;/font&gt;" style="text;html=1;resizable=0;autosize=1;align=center;verticalAlign=middle;points=[];fillColor=none;strokeColor=none;rounded=0;fontFamily=Helvetica;fontSize=11;fontColor=default;" vertex="1" parent="1">
                    <mxGeometry x="540" y="206" width="70" height="20" as="geometry"/>
                </mxCell>
                <mxCell id="78" style="edgeStyle=none;html=1;exitX=1;exitY=0.115;exitDx=0;exitDy=0;exitPerimeter=0;endArrow=none;endFill=0;startSize=6;" edge="1" parent="1" source="79">
                    <mxGeometry relative="1" as="geometry">
                        <mxPoint x="50" y="248" as="targetPoint"/>
                    </mxGeometry>
                </mxCell>
                <mxCell id="79" value="" style="pointerEvents=1;verticalLabelPosition=bottom;shadow=0;dashed=0;align=center;html=1;verticalAlign=top;shape=mxgraph.electrical.electro-mechanical.2-way_switch;rotation=-180;" vertex="1" parent="1">
                    <mxGeometry x="150" y="225" width="75" height="26" as="geometry"/>
                </mxCell>
                <mxCell id="80" value="Switch&lt;br&gt;" style="text;html=1;resizable=0;autosize=1;align=center;verticalAlign=middle;points=[];fillColor=none;strokeColor=none;rounded=0;" vertex="1" parent="1">
                    <mxGeometry x="162.5" y="260" width="50" height="20" as="geometry"/>
                </mxCell>
                <mxCell id="81" style="edgeStyle=none;html=1;exitX=0.7;exitY=1;exitDx=0;exitDy=0;exitPerimeter=0;endArrow=none;endFill=0;startSize=6;" edge="1" parent="1" source="83">
                    <mxGeometry relative="1" as="geometry">
                        <mxPoint x="400" y="320" as="targetPoint"/>
                    </mxGeometry>
                </mxCell>
                <mxCell id="82" style="edgeStyle=none;html=1;exitX=0.7;exitY=0;exitDx=0;exitDy=0;exitPerimeter=0;entryX=0;entryY=0.57;entryDx=0;entryDy=0;entryPerimeter=0;endArrow=none;endFill=0;" edge="1" parent="1" source="83" target="88">
                    <mxGeometry relative="1" as="geometry"/>
                </mxCell>
                <mxCell id="83" value="" style="verticalLabelPosition=bottom;shadow=0;dashed=0;align=center;html=1;verticalAlign=top;shape=mxgraph.electrical.transistors.npn_transistor_1;rotation=0;flipH=0;" vertex="1" parent="1">
                    <mxGeometry x="336.05" y="190" width="95" height="100" as="geometry"/>
                </mxCell>
                <mxCell id="84" style="edgeStyle=none;html=1;exitX=1;exitY=0.5;exitDx=0;exitDy=0;exitPerimeter=0;entryX=0;entryY=0.5;entryDx=0;entryDy=0;entryPerimeter=0;endArrow=none;endFill=0;startSize=6;" edge="1" parent="1" source="85" target="83">
                    <mxGeometry relative="1" as="geometry"/>
                </mxCell>
                <mxCell id="85" value="" style="pointerEvents=1;verticalLabelPosition=bottom;shadow=0;dashed=0;align=center;html=1;verticalAlign=top;shape=mxgraph.electrical.resistors.resistor_2;" vertex="1" parent="1">
                    <mxGeometry x="225" y="220" width="100" height="20" as="geometry"/>
                </mxCell>
                <mxCell id="86" value="&lt;font style=&quot;font-size: 18px&quot;&gt;4.7 k&lt;/font&gt;&lt;span style=&quot;color: rgb(32 , 33 , 36) ; font-family: &amp;#34;arial&amp;#34; , sans-serif ; font-size: 16px ; text-align: left ; background-color: rgb(255 , 255 , 255)&quot;&gt;Ω&lt;/span&gt;" style="text;html=1;resizable=0;autosize=1;align=center;verticalAlign=middle;points=[];fillColor=none;strokeColor=none;rounded=0;fontFamily=Helvetica;fontSize=11;fontColor=default;" vertex="1" parent="1">
                    <mxGeometry x="240" y="240" width="70" height="20" as="geometry"/>
                </mxCell>
                <mxCell id="87" style="edgeStyle=none;html=1;exitX=1;exitY=0.57;exitDx=0;exitDy=0;exitPerimeter=0;endArrow=none;endFill=0;" edge="1" parent="1" source="88">
                    <mxGeometry relative="1" as="geometry">
                        <mxPoint x="505" y="320" as="targetPoint"/>
                    </mxGeometry>
                </mxCell>
                <mxCell id="88" value="" style="verticalLabelPosition=bottom;shadow=0;dashed=0;align=center;html=1;verticalAlign=top;shape=mxgraph.electrical.opto_electronics.led_2;pointerEvents=1;flipH=1;rotation=-90;" vertex="1" parent="1">
                    <mxGeometry x="450" y="205" width="100" height="70" as="geometry"/>
                </mxCell>
                <mxCell id="89" value="Transistor" style="text;html=1;resizable=0;autosize=1;align=center;verticalAlign=middle;points=[];fillColor=none;strokeColor=none;rounded=0;" vertex="1" parent="1">
                    <mxGeometry x="310" y="290" width="70" height="20" as="geometry"/>
                </mxCell>
                <mxCell id="90" value="Output&lt;br style=&quot;font-size: 18px;&quot;&gt;" style="text;html=1;resizable=0;autosize=1;align=center;verticalAlign=middle;points=[];fillColor=none;strokeColor=none;rounded=0;fontSize=18;" vertex="1" parent="1">
                    <mxGeometry x="540" y="226" width="70" height="30" as="geometry"/>
                </mxCell>
                <mxCell id="91" value="Input A" style="text;html=1;resizable=0;autosize=1;align=center;verticalAlign=middle;points=[];fillColor=none;strokeColor=none;rounded=0;fontSize=18;" vertex="1" parent="1">
                    <mxGeometry x="155" y="190" width="70" height="30" as="geometry"/>
                </mxCell>
                <mxCell id="92" value="Emmanuel&amp;nbsp;&lt;br&gt;TEJ3M&lt;br&gt;Unit #4-07" style="text;html=1;resizable=0;autosize=1;align=center;verticalAlign=middle;points=[];fillColor=none;strokeColor=none;rounded=0;fontSize=18;" vertex="1" parent="1">
                    <mxGeometry x="260" y="340" width="110" height="70" as="geometry"/>
                </mxCell>
                <mxCell id="93" value="" style="shape=image;verticalLabelPosition=bottom;labelBackgroundColor=#ffffff;verticalAlign=top;aspect=fixed;imageAspect=0;image=data:image/png,iVBORw0KGgoAAAANSUhEUgAAANEAAACcCAIAAABuntkKAAAgAElEQVR4nO2deXAT5/nH39VKq/s+bFmWfOITjMFgwIAJhw0xOQhpSNq0JgfTNm2n6fSa6fSPzqQzmQz9pU0m00nTJmk4miEhBIeYUII5HdvYYOz4iIwPjA/JumXd0kq7+/vjnWpcc9QYs8bk/fzlV97j3Xe/+7z382AMwwAEgkU4850BxLcOpDkE2yDNIdgGaQ7BNkhzCLZBmkOwDdIcgm2Q5hBsgzSHYBvuLM6pq6ub83wgFjRcLvehhx6SSCQzORibxdwXhmEqlUooFN553hAPILFYLBaLtbW1FRQUzOT42dg5AMCf/vSnrVu3zu5cxANGU1PTnj17Zn78LDWnUqkMBsPszkU8YGg0mjs6HvUhEGyDNIdgG6Q5BNsgzSHYBmkOwTZIcwi2QZpDsM0sx+cgDMNQFIVhGIfDwTAs+SPDMBiGTf2FpmmapmGSw+Ekj4e/3zgXgmEYjuPJK0yFpmmKopLJqVe7DfAuOI7P6kFvAnxMmNXkH/BvmqZvn6VbPfUMn+Vucsvh3NzK/M8D5pDZay4Wi/X09Ozbty8vL2/btm25ubkAAJqmm5ubR0dHjUbj+vXr4ZFWq/Xzzz//+9//DpNVVVVPP/308uXLAQANDQ2ffvppW1vb1CtLpdLS0tKXXnopOzubIIip//J6va2tra+88ko0GgUAqFSq8vLyn/zkJykpKTwe71ZZdbvdra2tAwMDtbW1MplsTpQ3ODjY1tYmFosrKiqOHz+uUCiWLl2qUqnMZnNTU1NNTU1eXh6Xe5PiJUnyxIkTx44d6+jomPbUmzdv/t73vpeVlTWH3wbE6XReuHBhcnJy165dEonkRmGNjo52dnY6HI4dO3Zotdq5vfs0Zq85mqaDweDAwMDo6GhGRkZKSopUKgUA+P1+h8Mhl8vhYd98801zc7Pdbt+9e7dQKEwkEsFgsLGx0ev1rl27Njc399FHH126dKnP5zt27FhOTk5RUVFaWlpKSopGo5lW9CMjIy0tLS0tLdu2bVOpVARBRKNRn8/3xRdfbNmyJSMj41avKh6Pe71ei8WSSCTmam+lWq0uKSnh8XgMwzgcDoqiotEoRVGBQGB8fDwSidzqRjiOFxQUYBhWVlbmdrtPnTqVmZlZUlKi1WqzsrJUKtW9sHNisbi4uDgajfL5/JtePxaLud1um82WSCTm/O7TuKu6FcMwHo+XSCT6+vqMRuOSJUumPg/DMCRJXrp0yWazFRYWPvLII0KhkKKo9vb25ubmxsbG/Px8o9GYnZ0dj8cnJibMZvPatWurqqqysrJuvBdJkt3d3V9//bVMJtu9e7derycIwuVytbW1HT9+PD8/H5o6h8PR2NgYCoUAAGq1uqKiQiqV9vf3d3Z2Xr169dy5c+vXr5dIJBaLpbu72+fzaTSawsLCrKyspJmkadrr9fb39xuNRo1GQ9P0xMTE0NBQWVmZQqHwer1Wq1UkEolEIgzDQqGQy+W6cuWKUCgUCoWlpaXwIoODg+Pj44FAQK/Xl5WVyWSypGnBcTw/Pz8/Pz8ajY6MjIyNjZWXl2/fvl2v1wMABgYG+vr63G63z+crKytLT0/3eDx9fX1jY2MAAIPBkJ+fbzKZaJru6emhKMrr9Y6OjgIACgsL8/PzNRpNNBq9evVqX19fIBBQKpUFBQX5+flgStUfCAS6urpGR0fj8bhSqVyxYgVBEGaz+cKFCz6f78qVK6tWrZLJZE6n8/Lly5OTk2KxODs7e/HixTwe79q1aw6Hw+12ezyesrKyjIyMGa4lmcpdaQ7HcZlMlpuba7PZuru7s7Ozp+YgkUi43e7+/v7i4uKHHnpIJBIBALhcbklJSSQSOXTo0PXr16VSadIi3h6/39/X18cwzNNPP52eng5NmlwuX7JkSXt7O8MwkUjE6/WeO3fu7bff9vv98XjcYDDw+fySkhKz2dze3n79+vUvv/xy0aJFHA6nsbHx2LFjDodDr9c/9thjNTU1RqMx2cS0Wq3Hjh1bt27dypUrY7FYS0vL0aNHf//73wuFwuHh4bNnz+bm5qpUqo6OjkAgoNVqW1tbaZpWKBQ6nQ7qoL29fXx8fGhoKDs7G9oYWAn8T1paWi5dujQ8PBwIBAiCoGm6q6urvr6+t7eXoqicnJydO3c+9thjGIZ99tlnkUhkYmKio6MjFotVVlbu3r175cqVDofj2LFjZ8+edblc6enp1dXVaWlpgUDg3LlzLpcrNTV1ZGTk6NGjly9fjkajaWlpOI6npqb29PScOXMmHo8vXbo0IyMjFos1NTV98MEHTqdTJpOtW7dOIpFkZWW1tra2trZeu3bN7Xb/7Gc/U6vVbGsOAMDlctevX9/R0eHxeEZGRoqLi5P/IklyZGSEw+GoVCqFQjH1FKFQSBDE4OBgZmbmDDU3MTHh9/vFYrHBYEjaDB6Pl56e/rvf/Y7D4Xi93itXrtTV1b366quLFy+2WCwXLlw4efJkQUHBww8/LBQKu7q6fvWrX/F4vIMHD1qt1j/+8Y9Lliz5+OOPe3t7T5w4sXv3bljvcLlctVpdXFw8OTkZiUTC4XAgEEhNTYV/RyIRAEBhYaHf7wcApKWlVVdXezwejUZTUVGRmpra2Nj4xRdf/OY3v9mzZ4/X6923b9+XX34pl8sLCwtnWKR8Pv/hhx+ura0ViUSffPLJ0NBQTU3Ne++95/f733rrrevXr8PGDADA7/dXVVXt3bv36tWrf/nLX7q6upRK5fj4uN1u//Of/5yVlWU2m0+dOjU2Nsbn8wEA0MjV1dUtX778pZdeUigU3d3dnZ2d6enpO3fu1Gq1Vqt1z549CoWioaGhrq7uqaeeqq6u7u7uvnDhwsGDB3/+85/TNE0QxJYtW55//nmRSDS7dufdag7DMIFAsGzZsq6urs8//9xoNE7tVCY7dP91Sy5XIpGo1eo7argwDCOTyUQiESw+h8NRX19/4sQJm80GAPjxj3+8YcOGtWvXLlq0yGAwiMXiUCik1WqhacRxHMdxDofD5XLtdrvP5xOLxSaTSSAQlJWVuVyuQCAQi8UIgoBZ4vP5Go3m4sWLBQUFOI7z+fyVK1fa7XahUBgIBHg8HpQgfDQOh4P/Bw6HQxDE0qVL8/LyUlJSCIIoLi72+Xx31IiEhSMWizkczqZNmyoqKgQCAZ/Pl0gkWq12apPUaDRmZmYqlcrc3FxYzSXHB7hcrkgkWrx4scFgUKlUbrc7WYw0TcNPS6FQLF++PC8vT6FQWCwWLpcLnyIajZIkqVKpVq9erVKpCgoKLBZLU1OT3W4nSVIsFkPzNuse7t1qDgCAYVhubq7f7+/o6Ojp6YE9ytsfj+N48gXPHJIkORwOLFOhUFhYWEjTtMViOX/+fDgchr9fu3bt4MGDkUgkGAyGQiGlUjntIrFYzGKx9Pb22u12Pp8fDAadTmdeXl4wGExWE0Kh0GAwwMoax/FEIpGfnz88POx0OqPRqEAgkEgkt/rEuVxuRkaGVqsVCAQEQUilUmgRZ45UKlUqlfCNEgTR2dnZ2trqdrspiurt7U02GQEAGo1GrVbDekMkEnG5XKlUmp2dnZ2dvW/fvng8npmZuWXLFr1eD6+GYZhYLN60aZPZbH7nnXdwHM/Ozn744YfhZ5wkHA4Hg0GGYRQKBZfLVSqVWq0Ww7BYLEbTtFQqValUdzOkMgeaAwAolcr8/Hyn03n+/HmpVEqSJACAw+HIZDKGYaLRKLQi8GCKoiKRSCgUkslktxngmIZYLKZpenJycnJyUiQSSaXSNWvWlJeXOxwOeKlwODwxMfHvf//b4XAAAEiSTCQSN2oOAABl5Ha74WBYWlpaXl4ej8dLfgN8Pj8lJUUul/v9fjjWqNPp+vr6LBYLNHJcLvdWHwyHw5FKpQKBYNZvRSAQwLYvRVFms7mtra23txcAQNM0bKcmj4Qdl6nnikSi1NTUNWvWHDlyxGazkSQpkUgUCgV8IxiGCYXCiooKv98/Njbmdrvj8bhWqy0rK0uOnoIbxlOhLU8OHPL5fJi9WTM3mgMAGAyGRYsWnTp1SiqVwgEegiDS09P5fL7D4bBarbDxzjCM1+sdHx/3+XzZ2dkzbFkDAHQ6nUajuXbtmtlshivjMQyDIy/wTbjd7qGhoYmJiVdeeSUnJ8dqtTY3N7e0tEx/YC43Ly+vpKTk2WeflUqlsJXG4XAUCsXUrqVMJjMYDJOTkzRNy2QyrVZL0/Tg4KDJZFq+fPm9GM6YBsMw8Xi8ra0Nw7Af/ehHGzZsCAQC77zzzu3PisfjiUSioKDgtddeYximvb39008/zc3NhcsqGYZJJBLxeLympmbnzp3BYLCzs/PkyZNKpXLqxwk/aYIgIpEIFLrb7SZJ8laj9HfKnA06y2SygoKC6urqxsbGwcFBAACO43K5fPny5VevXv3ss88CgQAsx6ampsbGxqysrIyMjJlvqpBIJKWlpTwe729/+9vQ0BCswV0u1+nTp+vq6iYmJqYeHI/HBwcHL168eON19Ho9wzAjIyPDw8M0TV+6dOnNN9985513/H7/1G8dwzC5XN7X1zcyMqJUKuVyuVgspiiKIIi0tLTZF9NsSSQSQ0NDp0+f7unpuc1hFoulvr7+/fffhwWC4zi0c7A+SSQSNptt7969586d83q94D9bW6RS6dTha6FQyOPxnE5na2ur3+8fGBgYHBxMS0tLTU2dNkQ/O+bMzsHcb9q06fLly8mcYRi2atUqsVh87ty5nTt3crlchmEKCwvXrVtXXl4uFotn/t1gGFZUVCQUCq9cufLGG284nU6SJAUCQVpa2v/93/+tWrVKqVTSNC0UCn/xi19otdrc3NysrCzYvpTJZFwud3h4eO/evbW1tevWrWtpaXn11Vf9fj+PxysvL9+0aRNssydvB9s6LS0tAoHAZDLBdoJKpYJv6L9KkMtNTU39+OOPh4eHq6qq5rA8CYJYtmzZxx9//Nvf/jY1NbWysrKwsFClUnm93szMzJuepdFoeDzelStXXn755WAwaDAYNm/ebDKZAoEAfCiFQrFu3brDhw+//vrrcrncZDLt2LHDaDSGQiGapg8cOCAUCh955JFly5b5/f4jR44cOHCAz+cvWbJk165dcrl8TiZIZq85Ho9nMpl27txpMplgI5QgCKPR+P3vfz8ej5tMpmQplJaWwj4j/KWoqGjFihXJAwAAHA5HLpc/+eST6enpN22BQaApVSgUGIY5HA7Yh8rKytqwYYNMJsMwbNGiRbt27err6xMIBLm5uXq9PicnR6vVSiSSJUuWQDOmUqkkEgmPx+Pz+R6PB1rioqKiaS1LHMdNJtPWrVuhrDEMW7x4cVpamkqlgg+SmppaUVHB5/OlUml5eXksFtPpdHq9nsfj1dTUwHEvqVS6bNmy3NxcnU53k6LncjUazeOPP24wGJI6XrZsWSwWS0lJgcVSWFi4detW2AUuLS1dtWqVQCBQq9UCgWDz5s2wTuRwOCKRqLq6WqvVwvmbqqoqOCZsMBjKy8thu7m8vDwcDqvV6lWrVoVCoevXrwuFQpPJVFxcLJfLCYIoKyvbvXs3TKpUqg0bNtA07XK5pFJpcXFxYWEh7JJHIpG7nByb5V7Do0eP7tix425ujHhgOHPmzI4dO2a+1xCtZUKwDdIcgm2Q5hBsgzSHYBukOQTbIM0h2AZpDsE2SHMItkGaQ7AN0hyCbZDmEGyDNIdgG6Q5BNsgzSHYBmkOwTZIcwi2QZpDsA3SHIJtkOYQbIM0h2AbpDkE2yDNIdgGaQ7BNrPfU01RlN/vHx0dNZlM05wP3CWRSGR8fFwgEKhUKrFYfNNjLBaL3++Hu4Jv740GOvHEMCw1NfV/uuQJBoPXrl2DnisBAJmZmUaj8fYe8miajkQiY2NjMplMp9PNohwmJyd9Ph8AwGg0suBCet6Z/ROSJPnNN9+88cYbZrM5HA7PYZ5cLtdHH33U0NAwzQsJBDprb2hoeO+9944fPx6NRm+zLZxhmFAodPLkyVOnTt0+kwzDxGKxvr6+t99++8UXX9yzZ8+LL7743nvv9fb2QldztyKRSFit1n379l24cOH2R96KgYGBEydOnDhxYqrrvgeYhfdVJRKJ0dFRm80WCoWi0ajT6Zzq22bWRKPRM2fO/Otf/yoqKjp79mxbW9tXX32Vk5Nz8uTJ48eP3/31EUnmpkJMJBKdnZ1XrlyRSCSnTp2anJzMzs6uqqratGmTx+NpbW212WxCobC+vl6lUm3ZsqWyslImk12/fv3rr782GAwrVqwAAHR0dNjtdg6HY7fbDx06JBQK3W73448/vmjRoqn3IklyYGBApVIJBAIej9fa2qrT6e4yaDZ0R9fS0lJQULB69WroZp+iqE2bNjU2Nvb391utVoVC0draGgqFFi9enJmZGQ6Hv/rqK5/Pl5mZ+dlnnzU0NPT19cXj8Y0bN54+fVqhUExMTHR3d/v9/meeeaa8vBzH8YGBgd7e3u3bt2u1WrvdbjabPR5PTk7O0aNHT548KZPJZDJZVVXVvXaVP+/MjZ2jadpms7W3t1++fFkul0NfoQ0NDW632+/3f/311+fPnx8ZGcnIyGAYxmw2d3V1kSTp9XqhI0GKoqB78oGBAa/XCz0gabVahUIhEAim3SgcDg8MDOh0umXLlqWkpAwMDASDwbuslaLRqM1mc7vdixYtys7Ohm0yHMezsrJSUlJ8Pt/Q0FAkErl+/Xp/fz9se8Xj8aGhof7+fpIk1Wo1zLNcLo/FYt3d3WfPnrVarWq1WiQSXbhwYXBw0O12WyyWzs7OUCgE/fpev37dbDbTNK1UKjUajVKpTDrgebCZyyeErvt/+MMfMgxTX1/f1NTkdDpxHI9EIvF4PCsra+fOnVB/nZ2dxcXFN60TtVptYWFhdXW1wWBYv3690Wic+t9EIuH3+202W2lp6aJFiwiC6OjocLvdEonkbkxdLBbzeDwEQchksqkq5/F4YrGYx+NZLJa8vLwbT8RxXKPR1NTUOByOpUuXVlZWhsNhDMP8fv/q1aurq6sdDscbb7wxNDR0q86BXq9/6KGHoF+mzZs3z9zx6MJlLttzIpGopKREJpNpNBqTyZSampr8PScnZ/Xq1VwuF8Yw8Pl8LpdrFu2wSCTicDigp1iIUCgcGxub205MEuihd4ae3aeyfPny4uJilUoFnW2Fw2HocRYB5tbOEQRx0/EIgUAAX97dewb1+XwdHR0ffvjhkSNHCIKAbnIpisrOzlar1Xd58TnkRteIiCRzX7cmY64licfj0WgUDmpAj+axWGzauQzDuN3u2/tcj8ViIyMjZrN59+7dRqMRRtXx+/1DQ0Pj4+M6nW7Wr1kgEGi1WpIkYUyI5GcTjUbdbncwGMzIyJj2LYXD4VAodOODQGCfmqZpkiR9Pt/U8BgQ6JR9drld6LDRYo1EIi6Xa2JiIiUlBbo5FwqFYrHY5/N5vV6PxxMKhTAMGx4evn2wKRhKy+fzPf/88/n5+WKxOB6PW63W119/fXx8PDMzc9aag47S09LSent7oXNMgiCgb/zh4WHYNoC+REOhkMPhYBjGbrffprq0Wq1OpzMjI8Pr9drtdp1OJ5FI7Ha7zWbz+/3hcNjlco2OjkLX0t822NAcRVEej6enpycej/f392MYlpeXp1arA4EASZL9/f3Nzc1yudxut0PRQFe6FotlYmJCr9cnpyJgpCmZTJaWlgYVgOO4UCjUaDTj4+Pj4+PJmEx3CpfLValUFRUVp0+fbmpqCofDYrEYBiuLRqMlJSU6nY4kSblcPjAw0NraKpfLh4eHPR4PdDSL4zjDMC6Xy2azQT/2Tqezt7c3Fos5HA6aptPT0w0Gg9frnZycbG1t9Xq9Q0NDMNoYvDtJkg6Hw2Kx6PX6adEaHjzutg+B3QD4T+CbZBIOAZw8eXLjxo1//etftVptTU0NjIK1bt26zs7O559/fu/evSaTCb4DaHXefffdAwcOwNAIkLGxMa/XW1RUpFQq4ZgCh8ORSCSLFy8eHBzs6emBoeVmh0Ag2Lhx47PPPms2mzdv3rx69erKysrh4eGtW7du374dAEAQREVFRVpa2oEDB1avXn3x4kWJRKLRaKAzZJIkjx8/fvDgwWAwSNO0XC4/fPhwdXX1T3/6040bN5aXl+fl5ZWVla1evfoPf/jDyy+/fPny5WRIPrlc7nQ6//GPf7z//vswrM+Dzez9CT/22GOwjtBoNAKBIBQKBYNBuVwOP3S/3w/jr9lstrq6umAw+OijjyYSCZFIpNVqlUolNEgej8flcoXDYYlEAu2ZWCwWiUQ+n89iscDADEk75/f7Q6EQjuMwLAv8kaZpn88HwympVKppdo5hGJ/Pd/jwYRzHn3zyyf/ZA4UDdS6XCyZhUIpkCA4Yk9PhcESjUehmmsfjwWeZmJiAIXIYhnnrrbeKi4uzs7NhRCxY6UNj5nK5nE4njD4lEAhomoahE10uFyxJrVY7J/7w2eRO/QnPvm6FNiYZr0gul099owqFAjac4biUSCTKyMiQy+XTuq7Q+/2NF1er1Tf2Q+FI/Y3ZmBZS424QCASZmZm38oTP4/F0Ot1NnaDDcUSKoux2OwBAKBRmZmZO9Q0PAICxJW4aXsJgMBgMhjl4gIXAPW/PwToUxsO71/e6Edg0zM/Ph3+wcDuRSLRy5crMzMxZBJn8lnDPNadWq+cwUscsEIlElZWV7NwLxnDatWsXO7dboCy8dSWIhQ7SHIJtkOYQbIM0h2AbpDkE2yDNIdgGaQ7BNkhzCLaZ/Ziwx+MZGxsbHx8HAOj1eqlUGo1G4c7QlJQUuDNgdHSUYRidTqdQKOLx+OjoKEVRGo1GpVLB7VuJRAJOc9E0PTo6SpKkUqnUarUMw4yOjsZiMYVCAeeaxsbGIpGITCaDy4/Hx8fhLC2cSrJarcFgUCwWwxmkiYmJQCAgFArhlJTdbvf5fDDiNADA6XR6vV6CIODeWJfL5fF4YAhkHMfhFDCMGczj8bxer9Pp5HA4JpOJIAifzwdnt0wmk0AggAvlAQBwPV8wGLRarQAAg8EgFotDoZDFYgEApKWlSSQSuA0WAJCamiqTyZLFpdPpTCYTnMD9NjB7zQ0MDBw8ePCjjz4CADz66KNFRUUWi+XgwYMAgG3bti1dutRut+/fv5+m6S1btpSVlXm93n379sViscrKyjVr1gQCgf379weDwYqKivXr10ej0f3793u93pUrV27atImiqP379zscjtLS0q1btwIADhw4YLVai4uLH3nkEQDAoUOHRkZG8vLynnjiCQDAkSNHBgcHs7Ky4BzAsWPHzGZzenr6s88+CwA4ceJEV1dXampqbW0thmENDQ3t7e1qtbq2tpYgiPPnz1+8eFEmk9XW1orF4ubm5sbGRqFQWFtbq1AoLl26dObMGS6XW1tbq9VqOzo6vvzySwBAbW2tXq/v6emBOxG/+93vmkymq1ev1tXVAQC+853v5OTkXLt27fDhwwCAxx9/vKCgYGxs7MMPPwQA1NTULFmyxGaz7du3DwBQVVX1gx/8YNu2bXf3KhcMs19Xsm3btmAwGAwGAQBwowpFUTDuu0gkgmseYVIoFPL5fJqmA4EAwzAwCfc+0TQtEAjgcgyY5PP5cDdNIBCgKCqZDAaDiUSCIAi4ygMm4R4ZAEAoFIrH48lkOBwmSRIu30gmYbByAEAkEonFYskkXMPM4XDg6nmYxDBMKpVyOJxYLBaJRJJJkiTh3gupVIrjeDIpkUi4XG48HofrqWAykUhMLZ9kclr5iEQiiUSSXL2y4GBvXQnUyrSVrtMWg0xLTltCMm0xyLTktPXc9y45t0zbnTqtfG5fXN8SUB8CwTZIcwi2QZpDsA3SHIJtkOYQbIM0h2AbpDkE2yDNIdgGaQ7BNvPsYW9ycrKtra25udnv969du7aiokKv18/h9WmabmlpEYlERqPxXjgHSSQSTqezoaFhxYoVGRkZC3f+ik3mTXMMw8Tj8StXrly+fHl8fJwkSTjRThDEHM4I0TTd09OjUqmgV7y5uiwELo05f/58XV2dSqVKSUlBmpsJ81a3Mgzj9/vPnDmD4/ivf/3rN998U6FQdHV19ff3z2LZAfvE43GLxdLU1FRfX2+32+Px+HznaMEwb5qjadrv93O5XJ1Op9frRSJRUVGRz+eDq+jmK1czx2azvfvuu+fOndu+fXtOTs40v8eI2zBvdWtSc2KxmM/n4ziekpICfQySJHn/+8PSarXPPfdcKBQKh8Pnz5+f7+wsJOZTcy6XKx6P4zgOHefw+XyKouLx+JzEe7jXCASCnJycWCw2ODh49z5rv1XMZ3sukUgsiKYbYm6ZN81BN3IEQSRlR1EUh8PhcDjIbDzYzJvmOByOTCajKAouHKdp2uFw8Pl8lUq14Jz+Ie6IedMchmFyuRyOqdrt9kgk0tfXJ5PJjEYj0tyDzbz1IeCel+XLl5vN5g8++ADDMJIk165dm5ub+22IJ/ltZj7tnFAorKyszM3NtVqt3d3dOTk5S5cuvanr0/sW6OC2pKREq9V+G8ImzQnzPN+qVqt37dq1cB1T8ni8jIyMX/7yl/OdkYUEqsUQbPOAR27EcXzLli0EQcyVY3XE3fOAaw7DsJycnPnOBeK/QHUrgm3uCzvHMAxFURiG3YtJCBjC+l5cmaZpiqLg9Xk8HppBmSH3hZ2zWCz//Oc/6+vrJyYm5vbKFEV9+umnp0+fhj7L5haz2fzaa6+Vl5eXl5d/9NFHKCrwDJl/zQ0MDHzyyScffPABXC08txdnGMbj8fh8vjm/8vj4eHNzcyQSeeGFF5555pne3t5Lly5NTk7O7V0eSOZTcxRF9fT0tLa2Xrt2bcHNPYyNjTkcDqPR+MILLzz33HM0TQ8ODn4bohLePfO5H4KiqG+++cbtdufn56ekpCTjFy4IXC6XVCo1mUxSqZTP56empkYiEavVOkMfbCRn9T8AAAHNSURBVN9m5k1zMOjbU089xTDM8PDwoUOH5isns8PpdMJAmhiG8fl8pVLp9/s9Hs9852sBMM/91qmRhhcKDMOQJOnxeKa2BxbWI8wv98VYyYIDx3EY8Xe+M7IgWWAt9/sBDMO4XK5Go8FxPBaLwYYp9EiMdn/NBKS5WaLRaGKxmNPpTCQSMEY8QRD3wlXAgweqW2eJRqOZnJyMxWKTk5M+n29iYiIvLy89PX2+87UAQHZuluTm5q5Zs8Zutz/55JO1tbUGg2HdunXTnKYjbsp9YedUKtXGjRulUukCWnEkkUhKS0s5HA6MX7Nly5acnJz7fyv4/cB9oTmFQlFRUTHfubhj9Hq9Xq+HYXoQM+cBr1sxDIMhZrjc++LrQoD7xM7dO3Acf+KJJzgcDtogc//wgGsOAIB8wt1vPOB1K+I+BGkOwTZIcwi2QZpDsA3SHIJtkOYQbIM0h2AbpDkE2yDNIdgGaQ7BNkhzCLZBmkOwDdIcgm2Q5hBsgzSHYBukOQTbIM0h2AZpDsE2SHMItkGaQ7DNLPfgtLW1zW0+EAuX7u7uOzuBuXPuTc4RCxipVGo2m2eoHwxpCMEyqD2HYBukOQTbIM0h2AZpDsE2/w97dt4J7Pt1lgAAAABJRU5ErkJggg==;" vertex="1" parent="1">
                    <mxGeometry x="41" y="330" width="219" height="163.46" as="geometry"/>
                </mxCell>
            </root>
        </mxGraphModel>
    </diagram>
</mxfile>